<svg width="100px" height="100px" viewBox="0 0 441 172" xmlns="http://www.w3.org/2000/svg">
    <path d="m.797 10.605 4.967 5.15c.112.112.243.197.387.258.143.062.299.097.454.093h23.53c.11 0 .222-.031.322-.085a.537.537 0 0 0 .104-.844l-4.968-5.15a1.193 1.193 0 0 0-.845-.35H1.22a.683.683 0 0 0-.323.085.617.617 0 0 0-.215.265.606.606 0 0 0 0 .316.605.605 0 0 0 .112.266l.004-.004ZM.902 6.295a.603.603 0 0 0 .315.085h23.529c.16 0 .315-.031.462-.085.144-.062.275-.154.383-.266l4.967-5.1a.475.475 0 0 0 .148-.285.533.533 0 0 0 0-.316.537.537 0 0 0-.215-.242.642.642 0 0 0-.36-.085H6.612c-.156 0-.311.03-.455.092-.147.062-.279.147-.387.258L.79 5.455a.503.503 0 0 0-.155.274c-.02.104 0 .211.044.308a.55.55 0 0 0 .223.258ZM.897 25.693a.62.62 0 0 0 .323.085h23.525a1.18 1.18 0 0 0 .845-.35l4.968-5.108a.544.544 0 0 0 .107-.594.561.561 0 0 0-.53-.327H6.614c-.16 0-.315.03-.463.085a1.188 1.188 0 0 0-.382.265l-4.976 5.1a.581.581 0 0 0-.147.285.606.606 0 0 0 0 .316c.06.104.147.185.255.243H.897ZM43.542 13.726c.387.37.841.662 1.347.862.503.2 1.045.305 1.591.305h12.59v4.01H42.633v4.01H59.07c1.1 0 2.157-.425 2.934-1.168a3.919 3.919 0 0 0 1.22-2.812v-4.067c0-1.052-.43-2.061-1.204-2.808a4.24 4.24 0 0 0-2.918-1.175H46.52v-4.01h15.839v-4.01H46.484a4.32 4.32 0 0 0-1.59.305c-.507.2-.961.493-1.348.862-.383.37-.686.81-.897 1.29a3.875 3.875 0 0 0-.315 1.526v4.068c0 .524.108 1.04.315 1.525.211.481.514.917.897 1.29l-.004-.003ZM70.867 22.916h12.61c1.1 0 2.156-.424 2.934-1.167a3.92 3.92 0 0 0 1.22-2.812V6.847c0-.525-.112-1.049-.323-1.53a4.009 4.009 0 0 0-.91-1.294 4.253 4.253 0 0 0-1.359-.863 4.435 4.435 0 0 0-1.598-.297H70.867c-1.1 0-2.157.424-2.934 1.167a3.92 3.92 0 0 0-1.22 2.812V18.93c0 1.056.442 2.069 1.22 2.812a4.237 4.237 0 0 0 2.934 1.167v.008Zm0-16.043h12.55v12.03h-12.55V6.872ZM115.365 16.325h12.283v6.587h4.186V6.846c0-.524-.112-1.044-.323-1.53a3.971 3.971 0 0 0-.909-1.293 4.257 4.257 0 0 0-2.954-1.16h-12.311a4.227 4.227 0 0 0-2.914 1.179 3.894 3.894 0 0 0-1.208 2.804v16.07h4.186l-.032-6.587-.004-.004Zm0-9.452h12.283v5.443h-12.251l-.032-5.443ZM164.357 16.326h12.255v6.586h4.186V6.846a3.88 3.88 0 0 0-.315-1.525 4.139 4.139 0 0 0-2.241-2.15 4.268 4.268 0 0 0-1.598-.308h-12.283c-1.1 0-2.157.424-2.934 1.167a3.92 3.92 0 0 0-1.22 2.812v16.074h4.154v-6.587l-.004-.003Zm0-9.453h12.255v5.443h-12.255V6.873ZM139.699 6.873h1.674l5.976 14.371c.211.497.574.92 1.037 1.217a2.88 2.88 0 0 0 1.57.45h3.736c.363 0 .725-.069 1.06-.2.506-.2.941-.539 1.244-.978.303-.439.466-.951.466-1.479V2.864H152.3v16.038h-1.674L144.65 4.531a2.753 2.753 0 0 0-1.024-1.217 2.813 2.813 0 0 0-1.571-.45h-3.736c-.362 0-.725.068-1.06.203a2.791 2.791 0 0 0-.897.578c-.259.247-.463.54-.598.863-.14.323-.207.666-.207 1.017v17.39h4.178l-.036-16.042ZM95.52 2.863h-4.182v16.07c0 1.052.438 2.06 1.212 2.808a4.252 4.252 0 0 0 2.926 1.175h12.582v-4.01H95.52V2.863ZM393.861 96.236v9.048h18.733v36.195h9.369v-36.195h18.725v-9.048h-46.827ZM378.317 131.884l-3.285-.023-21.188-32.814c-1.188-1.825-3.222-2.915-5.454-2.915h-6.12c-3.552 0-6.438 2.792-6.438 6.22v38.341h8.894v-35.748l3.281.023 21.189 32.81c1.184 1.822 3.225 2.912 5.454 2.912v.007h6.123c3.548 0 6.439-2.792 6.439-6.22V96.135h-8.899v35.749h.004ZM329.302 95.8h-9.364v45.244h9.364V95.8ZM304.238 96.236h-28.401c-5.051 0-9.161 3.971-9.161 8.851v27.541c0 4.88 4.11 8.851 9.161 8.851h28.401c5.051 0 9.161-3.971 9.161-8.851v-27.541c0-4.88-4.11-8.851-9.161-8.851Zm.729 37.097h-29.856v-28.947h29.856v28.947ZM253.27 98.042c-2.153-1.205-4.513-1.81-7.072-1.81h-9.022c-1.607 3.031-3.217 6.063-4.923 9.048h13.949c1.307 0 2.416.439 3.321 1.313.905.875 1.359 1.946 1.359 3.213 0 1.267-.454 2.338-1.359 3.212-.901.875-2.01 1.314-3.321 1.314h-19.503c-3.935 6.001-8.352 11.871-13.275 17.271v9.869h9.364v-18.096h23.418c.024 0 .056-.008.083-.012 2.524-.015 4.852-.612 6.981-1.806 2.153-1.206 3.855-2.851 5.103-4.931 1.248-2.08 1.874-4.36 1.874-6.833s-.622-4.749-1.874-6.833c-1.248-2.08-2.95-3.725-5.103-4.93v.011ZM259.713 43.415h-10.039l-17.421 18.1h-9.472v-18.1h-9.365V88.66h9.365v-18.1h9.472l2.567 2.67c.69-1.08 1.395-2.15 2.117-3.213 6.478-9.672 13.842-18.916 22.772-26.605l.004.004ZM168.008 73.317h29.856v14.991h9.042V52.891c0-5.042-4.246-9.145-9.464-9.145h-29.011c-5.218 0-9.464 4.102-9.464 9.145v35.417h9.037V73.317h.004Zm0-20.835h29.856v12.103h-29.856V52.482ZM106.506 88.659h45.91v-9.044H115.87v-9.052h36.546v-9.048H115.87v-9.052h36.546v-9.048h-45.91V88.66ZM86.028 70.567c.024 0 .056-.008.084-.012 2.523-.015 4.852-.608 6.984-1.806 2.153-1.206 3.851-2.85 5.103-4.93 1.248-2.08 1.87-4.36 1.87-6.834 0-2.473-.622-4.75-1.87-6.833-1.248-2.08-2.95-3.725-5.103-4.93-2.153-1.206-4.513-1.81-7.072-1.81H53.246v45.243h9.365V70.56H70.7l16.544 18.1h12.829l-16.76-18.1h2.715v.008Zm-23.417-9.048v-9.056h23.413c1.308 0 2.416.44 3.32 1.314.906.874 1.36 1.949 1.36 3.216 0 1.267-.454 2.338-1.36 3.212-.9.875-2.008 1.314-3.32 1.314H62.611ZM43.303 66.033a13.644 13.644 0 0 0 1.65-2.215c1.248-2.08 1.874-4.36 1.874-6.833s-.622-4.75-1.874-6.833c-1.248-2.08-2.95-3.725-5.103-4.93-2.153-1.206-4.513-1.81-7.072-1.81H0v45.244h32.786c2.56 0 4.915-.602 7.072-1.808 2.153-1.205 3.855-2.85 5.103-4.93 1.248-2.08 1.87-4.36 1.87-6.833s-.622-4.75-1.87-6.833a13.687 13.687 0 0 0-1.654-2.219h-.004ZM9.369 52.46h23.413c1.312 0 2.42.44 3.325 1.314.905.874 1.36 1.949 1.36 3.216 0 1.267-.46 2.338-1.36 3.213-.91.874-2.014 1.313-3.325 1.313H9.369v-9.056Zm26.746 25.842c-.91.875-2.014 1.314-3.325 1.314H9.369v-9.052h23.417c1.311 0 2.42.443 3.325 1.313.905.875 1.36 1.95 1.36 3.213 0 1.263-.46 2.338-1.36 3.209l.004.003ZM259.835 82.97c-2.037-1.984-4.202-3.856-6.143-5.92-1.746-1.861-2.679-3.513-2.787-5.123a399.337 399.337 0 0 0-3.149 5.192 370.16 370.16 0 0 0-6.877 12.183c5.302 0 10.604.02 15.903-.038.223 0 .446-.012.665-.023 4.525-.255 5.621-3.12 2.432-6.229l-.048-.046.004.004Z"></path>
    <path d="M294.654 27.23c-12.558 1.194-24.123 7.172-33.591 15.038-.455.377-.905.762-1.352 1.147-8.93 7.689-16.289 16.933-22.771 26.605a121.46 121.46 0 0 0-2.117 3.213c-4.612 7.195-8.539 14.748-12.606 22.228a3.127 3.127 0 0 0-.422-.034c-5.637 0-11.274-.023-16.907.034-.224 0-.447.012-.666.023-4.525.255-5.621 3.12-2.432 6.229l.048.046c2.037 1.984 4.202 3.856 6.143 5.92 3.624 3.86 3.138 6.379.506 10.269a158.743 158.743 0 0 1-6.306 8.436c-6.223 7.781-13.288 15.068-21.592 20.796-6.61 4.603-14.128 8.1-22.249 9.714 1.024-.127 2.053-.25 3.082-.396 11.401-1.872 21.679-7.743 30.318-15.007 15.703-13.378 27.005-30.873 36.437-48.749 14.217-26.62 33.855-58.798 66.485-65.508l-.008-.004ZM345.032 171.77v-3.74l14.996-13.817v-3.396h-10.612v3.55h-4.426V151.2c0-2.71 1.02-4.236 3.995-4.236h11.081c3.369 0 4.384 1.143 4.384 4.196v2.444c0 1.639-.394 2.443-1.803 3.586l-11.669 10.764h13.862v3.816h-19.817.009ZM370.449 167.589v-17.221c0-2.383 1.525-3.404 3.669-3.404h12.765c2.693 0 3.631 1.626 3.631 4.429v15.932c0 2.234-1.483 4.237-4.255 4.237h-11.67c-2.227 0-4.14-1.174-4.14-3.973Zm15.653 0v-16.653H374.82v16.653h11.282ZM396.381 171.77v-3.74l14.997-13.817v-3.396h-10.612v3.55h-4.426V151.2c0-2.71 1.019-4.236 3.995-4.236h11.08c3.369 0 4.385 1.143 4.385 4.196v2.444c0 1.639-.394 2.443-1.803 3.586l-11.669 10.764h13.861v3.816h-19.816.008ZM421.367 167.684v-3.78h4.507v4.006h10.657v-7.212h-9.678v-3.586h9.483v-6.296h-10.462v2.976h-4.465v-2.403c0-2.939 1.02-4.425 4.623-4.425h10.109c3.802 0 4.661 1.562 4.661 4.236v4.466c0 1.68-.432 2.669-1.41 3.166 1.099.456 1.609 1.45 1.609 3.283v5.229c0 2.71-1.099 4.426-4.466 4.426h-10.54c-3.446 0-4.624-1.869-4.624-4.082l-.004-.004Z"></path>
</svg>