<svg width="380" height="209" viewBox="0 0 380 209" fill="none" xmlns="http://www.w3.org/2000/svg">
<path d="M59.4389 54.8373C58.4087 52.0686 56.7579 49.7095 54.5218 47.8364C52.315 45.9866 49.4819 44.4179 46.0927 43.1886C42.7444 41.9711 38.6703 40.8296 34.0108 39.7935C29.1172 38.5935 25.1074 37.4579 22.1045 36.4277C19.207 35.4326 17.1172 34.0628 15.8938 32.3536C14.6763 30.6443 14.0558 28.0921 14.0558 24.7673C14.0558 21.8698 14.6997 19.4932 15.9641 17.6961C17.2284 15.899 19.1485 14.5293 21.6597 13.622C24.2294 12.6971 27.5074 12.2288 31.4001 12.2288C33.2791 12.2288 35.802 12.3576 38.8869 12.6152C42.0068 12.8727 45.2263 13.1596 48.5629 13.4581C51.8702 13.7625 54.8087 14.0844 57.3082 14.4298L57.9169 14.5117L58.9296 3.10304L58.4028 3.00938C55.997 2.58207 53.076 2.14304 49.7336 1.70402C46.4204 1.27671 43.0019 0.902083 39.5717 0.597695C36.1415 0.293307 33.0391 0.141113 30.3581 0.141113C24.3406 0.141113 19.0021 0.984034 14.4948 2.64646C9.93483 4.3323 6.3817 7.07179 3.94074 10.8005C1.50563 14.5176 0.270508 19.5224 0.270508 25.6746C0.270508 29.9712 0.832471 33.6472 1.93295 36.5975C3.04514 39.5828 4.83635 42.094 7.24219 44.0608C9.62461 46.0042 12.6568 47.6315 16.2509 48.9018C19.8157 50.1603 24.0362 51.2842 28.8128 52.2383C33.4313 53.093 37.1542 54.0705 39.8819 55.13C42.5278 56.1661 44.4244 57.53 45.519 59.1924C46.6195 60.8666 47.1756 63.1846 47.1756 66.0821C47.1756 69.688 46.5434 72.6557 45.3024 74.8918C44.0731 77.1103 42.1941 78.7962 39.7239 79.9025C37.2127 81.0323 33.9698 81.6059 30.0888 81.6059C27.7708 81.6059 24.9435 81.4771 21.6889 81.2196C18.4167 80.962 15.0333 80.6342 11.6382 80.2479C8.21386 79.8557 5.21682 79.5279 2.72904 79.2703L2.14367 79.2118L0.984668 90.4976L1.54659 90.5737C4.16901 90.9249 7.22462 91.3581 10.6373 91.8732C14.0792 92.3883 17.6499 92.8273 21.2558 93.1785C24.8674 93.5239 28.0986 93.6995 30.8615 93.6995C36.9727 93.6995 42.3405 92.7219 46.8185 90.7902C51.3316 88.8468 54.8555 85.7444 57.2906 81.5825C59.714 77.4382 60.9433 71.9182 60.9433 65.1748C60.9433 61.0597 60.4282 57.5768 59.4096 54.8373H59.4389Z" fill="#145D3E"/>
<path d="M111.776 26.1252V77.801C110.032 78.6088 107.79 79.4634 105.097 80.3473C102.27 81.278 99.1206 81.7463 95.7314 81.7463C92.3422 81.7463 89.7607 81.0907 88.0983 79.7912C86.4534 78.5093 85.3646 76.3142 84.8729 73.2703C84.3578 70.1152 84.1003 65.8186 84.1003 60.4977V26.1252H70.8418V60.6265C70.8418 68.1776 71.4155 74.4293 72.5452 79.2117C73.6984 84.0878 75.8466 87.7639 78.9315 90.1346C82.0105 92.4994 86.4827 93.6994 92.2192 93.6994C96.5919 93.6994 100.438 93.1199 103.657 91.9785C106.502 90.9658 109.23 89.7599 111.776 88.3902V92.4058H124.9V26.1311H111.776V26.1252Z" fill="#145D3E"/>
<path d="M189.998 42.5973C189.295 38.4646 188.084 35.0461 186.404 32.4354C184.694 29.7896 182.312 27.8344 179.309 26.6227C176.347 25.4286 172.536 24.8257 167.976 24.8257C165.682 24.8257 163.27 25.1593 160.806 25.8208C158.377 26.4706 156.035 27.2432 153.852 28.1154C152.101 28.8179 150.585 29.5262 149.327 30.2344V26.1252H136.068V92.3999H149.327V40.8471C150.462 40.2968 151.885 39.7056 153.559 39.0792C155.385 38.4002 157.364 37.8441 159.448 37.4168C161.526 36.9954 163.563 36.7788 165.5 36.7788C168.989 36.7788 171.617 37.4578 173.327 38.7983C175.024 40.1271 176.172 42.3514 176.751 45.4012C177.348 48.568 177.652 52.8587 177.652 58.1562V92.3999H191.04V57.5064C191.04 51.7055 190.688 46.689 189.992 42.5914L189.998 42.5973Z" fill="#145D3E"/>
<path d="M236.488 24.703C233.602 25.2298 230.658 26.0903 227.731 27.2727C224.822 28.4435 222.111 29.702 219.682 31.0015C217.704 32.061 215.989 33.0795 214.566 34.0337V26.1196H201.313V92.3943H214.566V45.8931C216.065 45.0795 217.973 44.1604 220.262 43.1595C222.697 42.0882 225.389 41.0697 228.264 40.1273C231.132 39.1849 233.971 38.4473 236.699 37.938L237.179 37.8502V24.5801L236.488 24.703Z" fill="#145D3E"/>
<path d="M257.321 26.1252H244.062V92.3999H257.321V26.1252Z" fill="#145D3E"/>
<path d="M250.695 0.392822H250.689C247.029 0.392822 244.062 3.35952 244.062 7.01912V7.54009C244.062 11.1997 247.029 14.1664 250.689 14.1664H250.695C254.354 14.1664 257.321 11.1997 257.321 7.54009V7.01912C257.321 3.35952 254.354 0.392822 250.695 0.392822Z" fill="#145D3E"/>
<path d="M314.154 62.1425C312.62 59.6196 310.162 57.6586 306.854 56.3182C303.623 55.007 299.251 53.9065 293.859 53.0343C289.58 52.3494 286.238 51.6353 283.937 50.9094C281.731 50.2187 280.256 49.3875 279.553 48.4509C278.857 47.5202 278.5 46.2382 278.5 44.646C278.5 42.4626 278.997 40.7768 279.98 39.6354C280.976 38.4822 282.404 37.6685 284.224 37.2237C286.127 36.7612 288.287 36.5271 290.646 36.5271C292.695 36.5271 295.13 36.6149 297.887 36.7846C300.65 36.9603 303.442 37.2002 306.175 37.4988C308.921 37.8032 311.362 38.1251 313.422 38.4705L314.078 38.5817L314.517 27.5301L314.013 27.4423C312.017 27.0969 309.606 26.7047 306.854 26.2715C304.068 25.8384 301.147 25.4871 298.174 25.2296C295.182 24.972 292.349 24.8374 289.738 24.8374C285.623 24.8374 281.649 25.4579 277.926 26.6871C274.15 27.9281 271.042 30.0296 268.689 32.9154C266.318 35.8246 265.112 39.9046 265.112 45.0441C265.112 49.4694 265.932 52.9875 267.547 55.4987C269.169 58.0216 271.674 59.9181 274.987 61.124C278.213 62.3006 282.316 63.2957 287.186 64.0742C291.641 64.7591 295.065 65.4791 297.366 66.1991C299.584 66.8957 301.106 67.7503 301.891 68.7337C302.669 69.7112 303.061 71.1395 303.061 72.9834C303.061 75.3483 302.534 77.2156 301.498 78.5326C300.451 79.8556 298.894 80.8156 296.862 81.3834C294.761 81.9746 292.056 82.2731 288.831 82.2731C287.286 82.2731 285.184 82.1619 282.574 81.9512C279.963 81.7404 277.241 81.4536 274.478 81.1083C271.703 80.7629 269.233 80.4585 267.067 80.2009L266.447 80.1248L265.867 90.995L266.359 91.1004C268.425 91.5335 270.907 91.9491 273.741 92.3413C276.544 92.7277 279.442 93.0613 282.345 93.3189C285.249 93.5765 287.871 93.7111 290.131 93.7111C295.627 93.7111 300.369 93.0438 304.226 91.7326C308.142 90.3979 311.198 88.1326 313.293 85.0067C315.383 81.8868 316.449 77.6663 316.449 72.4624C316.449 68.1308 315.676 64.6654 314.154 62.1542V62.1425Z" fill="#145D3E"/>
<path d="M379.99 55.8206C379.99 45.0617 377.642 37.1183 373.006 32.2247C368.364 27.3193 361.422 24.8315 352.372 24.8315C346.495 24.8315 341.367 26.0374 337.141 28.414C332.891 30.8022 329.549 34.6129 327.213 39.729C324.895 44.8041 323.719 51.5358 323.719 59.725C323.719 67.2118 324.603 73.5278 326.353 78.5034C328.121 83.5433 331.018 87.3833 334.969 89.9121C338.903 92.4291 344.318 93.7052 351.073 93.7052C353.824 93.7052 356.874 93.594 360.146 93.3774C363.395 93.1608 366.579 92.8506 369.605 92.4643C372.661 92.0721 375.289 91.6974 377.42 91.3579L377.929 91.276L377.636 81.0497L377.022 81.1024C374.985 81.2721 372.456 81.4477 369.5 81.6234C366.655 81.7931 363.664 81.9453 360.608 82.0799C357.635 82.2087 354.866 82.2731 352.384 82.2731C346.718 82.2731 342.772 80.7629 340.647 77.7775C338.546 74.8273 337.405 70.402 337.258 64.601H379.305L380.001 55.8265L379.99 55.8206ZM344.083 37.6217C346.325 36.3749 349.112 35.7485 352.378 35.7485C357.365 35.7485 361.036 37.1593 363.295 39.9514C365.519 42.7026 366.673 47.5787 366.737 54.4626H337.246C337.293 49.9787 337.89 46.3436 339.02 43.6451C340.173 40.8822 341.882 38.8568 344.089 37.6276L344.083 37.6217Z" fill="#145D3E"/>
<path d="M59.4389 169.475C58.4087 166.706 56.7579 164.347 54.5218 162.474C52.315 160.624 49.4819 159.055 46.0927 157.826C42.7444 156.609 38.6703 155.467 34.0108 154.431C29.1172 153.231 25.1074 152.095 22.1045 151.065C19.207 150.07 17.1172 148.7 15.8938 146.991C14.6763 145.282 14.0558 142.73 14.0558 139.405C14.0558 136.507 14.6997 134.131 15.9641 132.334C17.2284 130.537 19.1485 129.167 21.6597 128.259C24.2294 127.335 27.5074 126.866 31.4001 126.866C33.2791 126.866 35.802 126.995 38.8869 127.253C42.0068 127.51 45.2263 127.797 48.5629 128.096C51.8702 128.4 54.8087 128.722 57.3082 129.067L57.9169 129.149L58.9296 117.74L58.4028 117.647C55.997 117.22 53.076 116.78 49.7336 116.341C46.4204 115.914 43.0019 115.54 39.5717 115.235C36.1415 114.931 33.0391 114.779 30.3581 114.779C24.3406 114.779 19.0021 115.621 14.4948 117.284C9.93483 118.97 6.3817 121.709 3.94074 125.438C1.50563 129.155 0.270508 134.16 0.270508 140.312C0.270508 144.609 0.832471 148.285 1.93295 151.235C3.04514 154.22 4.83635 156.731 7.24219 158.698C9.62461 160.642 12.6568 162.269 16.2509 163.539C19.8157 164.798 24.0362 165.922 28.8128 166.876C33.4313 167.73 37.1542 168.708 39.8819 169.767C42.5278 170.804 44.4244 172.167 45.519 173.83C46.6195 175.504 47.1756 177.822 47.1756 180.72C47.1756 184.325 46.5434 187.293 45.3024 189.529C44.0731 191.748 42.1941 193.434 39.7239 194.54C37.2127 195.67 33.9698 196.243 30.0888 196.243C27.7708 196.243 24.9435 196.115 21.6889 195.857C18.4167 195.599 15.0333 195.272 11.6382 194.885C8.21386 194.493 5.21682 194.165 2.72904 193.908L2.14367 193.849L0.984668 205.135L1.54659 205.211C4.16901 205.562 7.22462 205.996 10.6373 206.511C14.0792 207.026 17.6499 207.465 21.2558 207.816C24.8674 208.161 28.0986 208.337 30.8615 208.337C36.9727 208.337 42.3405 207.359 46.8185 205.428C51.3316 203.484 54.8555 200.382 57.2906 196.22C59.714 192.076 60.9433 186.556 60.9433 179.812C60.9433 175.697 60.4282 172.214 59.4096 169.475H59.4389Z" fill="#145D3E"/>
<path d="M104.851 195.816L104.26 195.869C103.218 195.956 102 196.062 100.613 196.196C99.2371 196.325 97.8908 196.413 96.6206 196.454C95.3738 196.495 94.2908 196.518 93.3894 196.518C90.9367 196.518 89.1338 196.079 88.0333 195.213C86.9445 194.358 86.207 192.801 85.8441 190.577C85.4577 188.236 85.2645 184.922 85.2645 180.731V152.207H104.628V140.769H85.2645V121.668H72.1407V140.769H63.3018V152.207H72.1407V184.109C72.1407 190.384 72.7437 195.318 73.9261 198.79C75.1436 202.349 77.2041 204.883 80.0607 206.335C82.8646 207.757 86.646 208.477 91.3055 208.477C92.4411 208.477 93.8576 208.39 95.5259 208.214C97.1766 208.038 98.8625 207.839 100.542 207.629C102.246 207.412 103.768 207.166 105.067 206.909L105.571 206.809L104.851 195.828V195.816Z" fill="#145D3E"/>
<path d="M170.272 198.081C168.457 197.835 166.941 197.32 165.77 196.548C164.658 195.822 164.043 194.71 163.891 193.205V161.239C163.891 156.234 163.083 152.078 161.491 148.893C159.876 145.668 157.335 143.256 153.928 141.734C150.574 140.236 146.248 139.475 141.086 139.475C138.317 139.475 135.238 139.65 131.93 139.996C128.647 140.341 125.468 140.739 122.489 141.167C119.474 141.606 116.857 142.091 114.703 142.607L114.229 142.724L114.814 152.663L115.429 152.593C117.753 152.335 120.416 152.072 123.343 151.814C126.223 151.563 129.232 151.34 132.293 151.165C135.308 150.995 137.966 150.907 140.19 150.907C143.661 150.907 146.278 151.709 147.975 153.284C149.661 154.846 150.516 157.615 150.516 161.496V166.033L132.223 167.801C127.581 168.064 123.642 168.913 120.516 170.318C117.337 171.752 114.908 173.906 113.298 176.733C111.695 179.537 110.881 183.242 110.881 187.744C110.881 194.452 112.555 199.615 115.851 203.092C119.158 206.575 124.022 208.343 130.309 208.343C133.189 208.343 136.11 208.079 138.99 207.552C141.852 207.031 144.586 206.37 147.115 205.586C149.462 204.854 151.423 204.157 152.939 203.502C153.835 204.286 154.795 204.989 155.801 205.591C156.931 206.271 158.231 206.797 159.653 207.149C160.607 207.406 161.632 207.629 162.703 207.81C163.757 207.986 164.916 208.097 166.157 208.144C167.392 208.185 168.621 208.208 169.815 208.208H170.377L170.816 198.146L170.289 198.075L170.272 198.081ZM150.504 175.656V194.077C149.286 194.47 147.729 194.926 145.868 195.43C143.825 195.986 141.63 196.483 139.353 196.916C137.111 197.338 134.898 197.554 132.768 197.554C129.893 197.554 127.815 196.694 126.405 194.914C124.982 193.123 124.256 190.583 124.256 187.352C124.256 184.12 124.994 181.797 126.451 180.134C127.897 178.483 130.391 177.523 133.868 177.278L150.51 175.65L150.504 175.656Z" fill="#145D3E"/>
<path d="M208.824 171.646L228.972 140.768H214.186L197.286 166.507L188.84 166.858V113.087H175.581V207.043H188.84V178.688L197.55 178.337L214.912 206.762L215.087 207.043H229.827L208.824 171.646Z" fill="#145D3E"/>
<path d="M284.352 170.458C284.352 159.699 282.005 151.756 277.369 146.862C272.727 141.957 265.784 139.469 256.734 139.469C250.857 139.469 245.73 140.675 241.503 143.051C237.254 145.44 233.911 149.25 231.576 154.366C229.258 159.447 228.081 166.173 228.081 174.362C228.081 181.849 228.965 188.165 230.715 193.141C232.483 198.181 235.381 202.021 239.332 204.55C243.265 207.067 248.68 208.343 255.435 208.343C258.186 208.343 261.236 208.231 264.508 208.015C267.763 207.798 270.941 207.488 273.968 207.102C277.017 206.71 279.646 206.335 281.782 205.995L282.291 205.913L281.999 195.687L281.384 195.74C279.347 195.91 276.812 196.085 273.862 196.261C271.017 196.431 268.026 196.583 264.971 196.717C261.997 196.846 259.234 196.911 256.746 196.911C251.08 196.911 247.135 195.4 245.01 192.415C242.908 189.465 241.767 185.039 241.62 179.238H283.667L284.364 170.464L284.352 170.458ZM248.446 152.259C250.688 151.012 253.474 150.386 256.74 150.386C261.728 150.386 265.398 151.797 267.657 154.589C269.882 157.34 271.035 162.216 271.099 169.1H241.609C241.656 164.616 242.253 160.975 243.382 158.283C244.536 155.52 246.245 153.494 248.452 152.265L248.446 152.259Z" fill="#145D3E"/>
</svg>
