<svg width="312" height="338" viewBox="0 0 312 338" fill="none" xmlns="http://www.w3.org/2000/svg">
<path d="M265.813 71.7712C245.044 51.0026 219.44 36.8368 191.548 30.2983C191.969 32.5695 192.321 34.8349 192.584 37.0885C254.72 53.3967 300.554 109.937 300.554 177.189C300.554 216.162 285.159 251.536 260.123 277.567C256.529 281.483 252.712 285.188 248.709 288.683C207.359 319.11 166.079 300.501 162.374 266.205L162.221 249.417C170.604 249.095 187.011 246.595 200.457 233.15C219.891 213.716 230.931 175.093 230.931 175.093C230.931 175.093 192.309 186.133 172.875 205.567C167.876 210.566 164.393 215.975 161.97 221.226L161.174 132.666C168.66 124.565 181.503 107.045 181.503 82.1497C181.503 46.0855 155.911 0 155.911 0C155.911 0 130.319 46.0855 130.319 82.1497C130.319 106.957 143.068 124.442 150.573 132.579L150.145 172.453C147.5 165.119 143.133 157.187 135.962 150.017C114.368 128.423 71.4551 116.153 71.4551 116.153C71.4551 116.153 83.7243 159.066 105.318 180.66C121.457 196.799 141.429 198.748 149.864 198.783L149.156 265.005C146.288 300.057 104.54 319.45 62.7098 288.677C58.706 285.182 54.8894 281.477 51.2953 277.561C26.2593 251.524 10.8643 216.151 10.8643 177.183C10.8643 109.785 56.8972 53.145 119.238 36.9715C119.508 34.7295 119.859 32.4642 120.292 30.1871C92.2296 36.6846 66.4796 50.8914 45.6056 71.7595C16.197 101.168 0 140.27 0 181.86C0 223.45 16.197 262.552 45.6056 291.961C75.0141 321.37 114.116 337.567 155.706 337.567C197.296 337.567 236.398 321.37 265.807 291.961C295.216 262.552 311.413 223.45 311.413 181.86C311.413 140.27 295.216 101.168 265.807 71.7595L265.813 71.7712Z" fill="#145D3E"/>
</svg>
