<svg width="102" height="36" viewBox="0 0 102 36" fill="none" xmlns="http://www.w3.org/2000/svg">
<path d="M20.5519 35.5541V33.0245H23.0815V30.4953H25.6111V27.9657H28.1577V7.67814H25.6111V5.14855H23.0811V2.6193H20.5515V0.0723238H0.281738V35.5541H20.5519ZM5.34093 30.4949V5.1489H18.023V7.67849H20.5522V10.2251H23.0818V25.4194H20.5522V27.966H18.023V30.4956H5.34058L5.34093 30.4949ZM38.2583 35.5541V21.6248H50.94V24.1541H53.4696V26.6836H55.9989V35.5541H61.0751V24.1541H58.5285V21.6248H55.9989V19.0952H58.5285V16.5486H61.0751V5.14855H58.5285V2.6193H55.9989V0.0723238H33.1995V35.5541H38.2583ZM38.2583 16.5482V5.1489H53.4696V7.67849H55.9989V14.0193H53.4696V16.5489H38.2583V16.5482ZM71.1757 35.5541V10.2248H66.1169V35.5541H71.1757ZM81.2934 35.5541V22.8894H96.5051V20.3598H99.0343V17.8132H101.564V5.14855H99.0343V2.6193H96.5051V0.0723238H76.2346V35.5541H81.2934ZM81.2934 17.8132V5.14855H93.9755V7.67814H96.5051V15.2836H93.9755V17.8132H81.2934ZM68.0578 0H69.1138V0.997929H68.0578V0Z" fill="#145D3E"/>
<path d="M67.5654 0.356445H69.6072V1.35437H67.5654V0.356445Z" fill="#145D3E"/>
<path d="M67.2129 0.926758H70.029V1.92469H67.2129V0.926758Z" fill="#145D3E"/>
<path d="M66.9312 1.49683H70.24V2.49476H66.9312V1.49683Z" fill="#145D3E"/>
<path d="M66.6499 2.06714H70.5922V3.06507H66.6499V2.06714Z" fill="#145D3E"/>
<path d="M66.2979 2.63745H70.8737V3.63538H66.2979V2.63745Z" fill="#145D3E"/>
<path d="M66.0161 3.20776H71.1553V4.20569H66.0161V3.20776Z" fill="#145D3E"/>
<path d="M65.6646 3.89197H71.2964V4.8899H65.6646V3.89197Z" fill="#145D3E"/>
<path d="M65.6646 4.34814H71.5781V5.34607H65.6646V4.34814Z" fill="#145D3E"/>
<path d="M65.6646 4.91833H71.5781V5.70242H65.6646V4.91833Z" fill="#145D3E"/>
<path d="M65.8047 5.27478H71.3663V6.27271H65.8047V5.27478Z" fill="#145D3E"/>
<path d="M66.0864 5.84497H71.1554V6.8429H66.0864V5.84497Z" fill="#145D3E"/>
<path d="M66.6499 6.55798H70.5922V7.55591H66.6499V6.55798Z" fill="#145D3E"/>
<path d="M67.1426 7.12817H70.0289V7.7697H67.1426V7.12817Z" fill="#145D3E"/>
<path d="M67.4946 7.34192H69.8883V7.98344H67.4946V7.34192Z" fill="#145D3E"/>
<path d="M66.8467 5.61804H67.4381V6.2095H66.8467V5.61804Z" fill="#145D3E"/>
<path d="M66.8467 5.61804H67.4381V6.2095H66.8467V5.61804Z" fill="#145D3E"/>
<path d="M66.8468 5.61807H67.4383V6.20952H66.8468V5.61807ZM66.5513 5.02661H67.1427V5.61807H66.5513V5.02661Z" fill="#145D3E"/>
<path d="M66.5513 5.02661H67.1427V5.61807H66.5513V5.02661Z" fill="#145D3E"/>
<path d="M66.5513 5.02661H67.1427V5.61807H66.5513V5.02661ZM67.1427 5.91362H67.7342V6.50508H67.1427V5.91362Z" fill="#145D3E"/>
<path d="M67.1426 5.91357H67.734V6.50503H67.1426V5.91357Z" fill="#145D3E"/>
<path d="M67.1426 5.91357H67.734V6.50503H67.1426V5.91357Z" fill="#145D3E"/>
<path d="M67.4385 6.20947H68.0299V6.80093H67.4385V6.20947Z" fill="#145D3E"/>
<path d="M67.4385 6.20947H68.0299V6.80093H67.4385V6.20947Z" fill="#145D3E"/>
<path d="M67.4385 6.20947H68.0299V6.80093H67.4385V6.20947ZM68.0299 6.50503H68.6214V7.09648H68.0299V6.50503Z" fill="#145D3E"/>
<path d="M68.0298 6.505H68.6212V7.09646H68.0298V6.505Z" fill="#145D3E"/>
<path d="M68.0298 6.505H68.6212V7.09646H68.0298V6.505Z" fill="#145D3E"/>
</svg>
